<svg width="400" height="200" viewBox="0 0 400 200" fill="none" xmlns="http://www.w3.org/2000/svg">
<path d="M148.882 97.7405V102.09H137.231V109.201H149.717V113.512H132.312V86.3215H149.711V90.6325H137.231V97.7405H148.882ZM164.931 93.0798C166.511 93.0661 168.068 93.4341 169.456 94.1492C170.83 94.8592 171.964 95.9233 172.727 97.2186C173.558 98.6504 173.975 100.266 173.935 101.9V113.514H169.031V102.638C169.068 101.934 168.95 101.231 168.686 100.572C168.421 99.9137 168.016 99.3145 167.495 98.8125C166.982 98.3427 166.376 97.9752 165.711 97.7319C165.047 97.4886 164.337 97.3744 163.625 97.396C162.903 97.3778 162.185 97.5013 161.516 97.7588C160.847 98.0162 160.241 98.4021 159.737 98.8922C159.219 99.3971 158.814 99.9964 158.547 100.654C158.279 101.311 158.155 102.013 158.182 102.717V113.514H153.274V93.4629H158.187V96.0644C159.011 95.1226 160.046 94.3665 161.216 93.851C162.383 93.3366 163.655 93.0732 164.942 93.0798H164.931ZM199.363 113.512C199.408 115.343 198.919 117.15 197.951 118.735C197.015 120.22 195.652 121.419 194.022 122.193C192.249 123.029 190.29 123.449 188.31 123.417C186.008 123.457 183.739 122.897 181.75 121.797C179.906 120.788 178.524 119.163 177.875 117.239L182.257 115.103C182.656 116.316 183.479 117.364 184.59 118.075C185.695 118.764 186.993 119.123 188.316 119.103C189.925 119.145 191.488 118.592 192.675 117.561C193.262 117.049 193.725 116.423 194.032 115.726C194.339 115.029 194.484 114.277 194.456 113.522V110.841C193.603 111.81 192.533 112.586 191.323 113.113C190.084 113.649 188.735 113.921 187.373 113.91C185.524 113.933 183.705 113.476 182.11 112.589C180.543 111.71 179.266 110.432 178.425 108.9C177.517 107.233 177.059 105.378 177.095 103.501C177.059 101.625 177.517 99.7699 178.425 98.103C179.266 96.5706 180.543 95.2925 182.11 94.414C183.705 93.5268 185.524 93.0699 187.373 93.0927C188.735 93.0814 190.084 93.3534 191.323 93.8896C192.533 94.4165 193.603 95.1929 194.456 96.1621V93.468H199.368L199.363 113.512ZM182.086 103.486C182.073 104.573 182.34 105.646 182.864 106.612C183.36 107.535 184.119 108.309 185.053 108.846C186.01 109.393 187.109 109.676 188.226 109.661C189.353 109.673 190.46 109.384 191.421 108.825C192.361 108.283 193.131 107.512 193.651 106.591C194.189 105.636 194.464 104.567 194.45 103.483C194.464 102.4 194.189 101.331 193.651 100.375C193.131 99.4575 192.362 98.688 191.424 98.1467C190.463 97.5882 189.355 97.2986 188.229 97.3112C187.112 97.2963 186.013 97.5786 185.056 98.1261C184.121 98.6632 183.363 99.4368 182.866 100.36C182.345 101.328 182.081 102.402 182.097 103.489L182.086 103.486ZM220.162 113.512V110.83C219.309 111.8 218.239 112.576 217.03 113.103C215.79 113.639 214.441 113.911 213.079 113.9C211.231 113.923 209.411 113.466 207.817 112.579C206.249 111.7 204.972 110.422 204.132 108.89C203.223 107.223 202.766 105.367 202.801 103.491C202.766 101.615 203.223 99.7596 204.132 98.0927C204.972 96.5603 206.249 95.2823 207.817 94.4037C209.411 93.5165 211.231 93.0596 213.079 93.0824C214.441 93.0711 215.79 93.3431 217.03 93.8793C218.239 94.4062 219.309 95.1826 220.162 96.1518V93.468H225.075V113.519L220.162 113.512ZM207.798 103.486C207.785 104.573 208.052 105.646 208.576 106.612C209.072 107.535 209.831 108.309 210.765 108.846C211.722 109.393 212.821 109.676 213.938 109.661C215.065 109.673 216.172 109.384 217.133 108.825C218.073 108.283 218.843 107.512 219.363 106.591C219.906 105.637 220.185 104.568 220.176 103.483C220.19 102.4 219.915 101.331 219.376 100.375C218.857 99.4553 218.087 98.6839 217.146 98.1415C216.186 97.5831 215.078 97.2935 213.952 97.306C212.834 97.2912 211.735 97.5735 210.779 98.121C209.844 98.6581 209.086 99.4317 208.589 100.355C208.068 101.324 207.805 102.4 207.822 103.489L207.798 103.486ZM250.787 113.512C250.831 115.343 250.343 117.15 249.375 118.735C248.438 120.22 247.074 121.42 245.443 122.193C243.67 123.029 241.711 123.449 239.731 123.417C237.423 123.46 235.147 122.9 233.152 121.797C231.309 120.786 229.929 119.159 229.283 117.234L233.694 115.113C234.093 116.326 234.916 117.374 236.027 118.085C237.132 118.775 238.43 119.133 239.753 119.113C241.362 119.155 242.925 118.602 244.113 117.571C244.699 117.059 245.162 116.434 245.469 115.737C245.777 115.039 245.921 114.287 245.893 113.532V110.851C245.04 111.82 243.97 112.597 242.761 113.124C241.521 113.66 240.172 113.932 238.81 113.92C236.962 113.943 235.142 113.486 233.548 112.599C231.98 111.721 230.703 110.443 229.863 108.91C228.954 107.243 228.497 105.388 228.532 103.512C228.497 101.635 228.954 99.7802 229.863 98.1133C230.703 96.5809 231.98 95.3028 233.548 94.4243C235.142 93.5371 236.962 93.0801 238.81 93.103C240.172 93.0916 241.521 93.3637 242.761 93.8999C243.97 94.4268 245.04 95.2032 245.893 96.1724V93.468H250.806L250.787 113.512ZM233.51 103.486C233.497 104.573 233.764 105.646 234.287 106.612C234.784 107.535 235.542 108.309 236.477 108.846C237.434 109.393 238.533 109.676 239.65 109.661C240.776 109.673 241.884 109.384 242.845 108.825C243.785 108.283 244.555 107.512 245.075 106.591C245.613 105.636 245.888 104.567 245.874 103.483C245.887 102.403 245.612 101.336 245.075 100.383C244.555 99.463 243.785 98.6916 242.845 98.1492C241.884 97.5908 240.776 97.3012 239.65 97.3138C238.533 97.2989 237.434 97.5812 236.477 98.1287C235.542 98.6658 234.784 99.4394 234.287 100.363C233.766 101.33 233.502 102.403 233.518 103.489L233.51 103.486ZM265.159 93.0773C266.983 93.0699 268.779 93.5043 270.377 94.3395C271.998 95.1726 273.357 96.3974 274.317 97.8896C275.331 99.4811 275.849 101.313 275.81 103.172C275.814 103.836 275.759 104.499 275.648 105.154H259.024C259.313 106.469 260.08 107.645 261.192 108.476C262.375 109.337 263.836 109.783 265.327 109.738C266.531 109.789 267.725 109.512 268.77 108.941C269.814 108.37 270.665 107.528 271.223 106.514L275.317 108.147C274.444 109.879 273.071 111.342 271.358 112.365C269.63 113.393 267.627 113.929 265.587 113.908C263.536 113.939 261.511 113.464 259.712 112.53C258.025 111.653 256.629 110.348 255.68 108.761C254.722 107.158 254.227 105.342 254.247 103.499C254.22 101.656 254.701 99.8384 255.642 98.2264C256.56 96.6562 257.912 95.3533 259.552 94.4577C261.259 93.5278 263.199 93.0518 265.167 93.0798L265.159 93.0773ZM271.217 101.622C270.915 100.376 270.161 99.2699 269.088 98.4963C268.015 97.6715 266.674 97.2254 265.294 97.2341C263.872 97.2012 262.48 97.6251 261.343 98.4372C260.24 99.2358 259.442 100.354 259.07 101.622H271.217ZM304.79 93.0773C306.335 93.0627 307.861 93.4097 309.231 94.0875C310.575 94.7532 311.695 95.7621 312.466 97.0001C313.296 98.3549 313.715 99.9014 313.675 101.468V113.509H308.768V102.244C308.787 101.593 308.669 100.944 308.419 100.337C308.17 99.73 307.795 99.1765 307.315 98.7096C306.856 98.2764 306.309 97.9359 305.708 97.7088C305.106 97.4816 304.462 97.3726 303.814 97.3883C303.167 97.3726 302.523 97.4855 301.923 97.7197C301.324 97.9538 300.783 98.3042 300.335 98.7482C299.408 99.6525 298.893 100.867 298.902 102.129V113.509H293.989V102.244C294.022 101.596 293.916 100.949 293.676 100.341C293.437 99.7333 293.069 99.1782 292.596 98.7096C292.129 98.2705 291.572 97.9267 290.959 97.6995C290.346 97.4722 289.691 97.3663 289.033 97.3883C288.377 97.3751 287.726 97.4946 287.122 97.7389C286.518 97.9831 285.977 98.3464 285.532 98.8048C284.596 99.7409 284.089 100.99 284.121 102.28V113.507H279.216V93.4552H284.129V95.7868C284.9 94.921 285.865 94.2305 286.955 93.7662C288.035 93.3025 289.208 93.064 290.394 93.067C291.793 93.0571 293.175 93.3638 294.425 93.9616C295.645 94.5378 296.683 95.4085 297.436 96.486C298.272 95.4065 299.376 94.5394 300.65 93.9616C301.943 93.3714 303.362 93.0698 304.798 93.0798L304.79 93.0773ZM327.757 93.0773C329.581 93.0699 331.378 93.5043 332.976 94.3395C334.596 95.1726 335.955 96.3974 336.916 97.8896C337.93 99.4811 338.447 101.313 338.409 103.172C338.412 103.836 338.358 104.499 338.246 105.154H321.625C321.914 106.469 322.681 107.645 323.793 108.476C324.976 109.337 326.437 109.783 327.928 109.738C329.132 109.789 330.326 109.512 331.371 108.941C332.415 108.37 333.266 107.528 333.824 106.514L337.918 108.147C337.043 109.88 335.667 111.343 333.951 112.365C332.223 113.393 330.219 113.929 328.18 113.908C326.129 113.939 324.104 113.464 322.305 112.53C320.618 111.653 319.222 110.348 318.273 108.761C317.315 107.158 316.82 105.342 316.84 103.499C316.819 101.658 317.306 99.8442 318.251 98.2366C319.169 96.6665 320.521 95.3636 322.161 94.468C323.864 93.5363 325.8 93.0568 327.765 93.0798L327.757 93.0773ZM333.816 101.622C333.513 100.376 332.759 99.2699 331.686 98.4963C330.61 97.6687 329.264 97.2224 327.879 97.2341C326.457 97.2012 325.064 97.6251 323.928 98.4372C322.825 99.2358 322.027 100.354 321.655 101.622H333.816ZM353.461 93.0773C355.04 93.0635 356.597 93.4316 357.986 94.1467C359.361 94.8559 360.497 95.92 361.262 97.2161C362.093 98.6478 362.51 100.263 362.47 101.897V113.512H357.566V102.635C357.603 101.931 357.485 101.228 357.221 100.57C356.956 99.9112 356.55 99.312 356.029 98.8099C355.517 98.3401 354.911 97.9727 354.246 97.7293C353.581 97.486 352.872 97.3718 352.16 97.3935C351.438 97.3752 350.72 97.4987 350.051 97.7562C349.382 98.0137 348.776 98.3995 348.272 98.8896C347.753 99.3945 347.349 99.9937 347.081 100.651C346.814 101.309 346.69 102.011 346.716 102.715V113.512H341.809V93.4603H346.722V96.0618C347.546 95.12 348.581 94.3639 349.751 93.8485C350.918 93.334 352.19 93.0706 353.477 93.0773H353.461ZM371.737 106.373C371.737 108.315 372.911 109.285 375.26 109.285C375.478 109.285 375.887 109.26 376.487 109.208V113.519C375.835 113.595 375.179 113.634 374.523 113.635C373.481 113.711 372.434 113.589 371.443 113.275C370.452 112.962 369.536 112.464 368.751 111.81C368.073 111.097 367.553 110.262 367.223 109.354C366.892 108.447 366.758 107.485 366.827 106.527V87.9616H371.74V93.4783H376.493V97.7893H371.737V106.373Z" fill="#002840"/>
<path d="M36.5076 61H91.7086C95.2911 61 98.7268 62.3501 101.26 64.7534C103.793 67.1567 105.216 70.4162 105.216 73.8149V126.185C105.216 129.584 103.793 132.843 101.26 135.247C98.7268 137.65 95.2911 139 91.7086 139H36.5076C32.9252 139 29.4895 137.65 26.9563 135.247C24.4231 132.843 23 129.584 23 126.185V73.8149C23 70.4162 24.4231 67.1567 26.9563 64.7534C29.4895 62.3501 32.9252 61 36.5076 61Z" fill="#FFD500"/>
<mask id="mask0_3965_128" style="mask-type:luminance" maskUnits="userSpaceOnUse" x="40" y="78" width="47" height="44">
<path d="M86.2215 78.1646H40.8213V121.237H86.2215V78.1646Z" fill="white"/>
</mask>
<g mask="url(#mask0_3965_128)">
<path d="M62.7317 84.0206V50.473H41.4392V101.745C46.9095 94.2805 54.2187 88.1959 62.7317 84.0206Z" fill="#002840"/>
<path d="M113.413 93.8252C112.825 93.527 112.272 93.1826 111.668 92.9049C111.492 92.8175 111.308 92.7455 111.126 92.6478L99.9 108.771C104.958 110.8 109.258 114.22 112.248 118.59C115.238 122.96 116.779 128.079 116.673 133.288C116.519 138.275 114.833 143.111 111.822 147.202C108.81 151.292 104.604 154.458 99.7212 156.312C94.8382 158.165 89.4909 158.624 84.3367 157.632C79.1824 156.641 74.4458 154.242 70.7092 150.731C66.9726 147.22 64.3988 142.75 63.3043 137.869C62.2098 132.989 62.6421 127.912 64.5483 123.262C66.4545 118.612 69.7514 114.591 74.0337 111.695C78.316 108.799 83.397 107.152 88.6522 106.959L100.919 89.3393C97.2339 88.5672 93.4719 88.175 89.6982 88.1697C80.1575 88.0775 70.7917 90.601 62.7263 95.4371C56.1705 99.6002 50.7977 105.233 47.0838 111.836C43.3698 118.439 41.4292 125.809 41.4338 133.293V178.409H62.7263V171.141C70.7917 175.977 80.1575 178.501 89.6982 178.409C96.288 178.441 102.822 177.258 108.937 174.928C117.047 171.523 124.004 166.053 129.036 159.124C134.067 152.194 136.975 144.078 137.438 135.675C137.901 127.273 135.9 118.913 131.658 111.524C127.415 104.135 121.097 98.0057 113.405 93.8175L113.413 93.8252Z" fill="#002840"/>
</g>
</svg>
